<?xml version="1.0" encoding="UTF-8"?>
<svg width="512px" height="512px" viewBox="0 0 512 512" version="1.1" xmlns="http://www.w3.org/2000/svg" xmlns:xlink="http://www.w3.org/1999/xlink">
    <title>icon</title>
    <defs>
        <linearGradient x1="50%" y1="0%" x2="50%" y2="100%" id="linearGradient-1">
            <stop stop-color="#FFFFFF" stop-opacity="0" offset="0%"></stop>
            <stop stop-color="#000000" stop-opacity="0.117242133" offset="100%"></stop>
        </linearGradient>
    </defs>
    <g id="icon" stroke="none" fill="none" fill-rule="evenodd" stroke-width="1">
        <g id="Rectangle" transform="translate(-0.3097, -0.3097)">
            <path d="M125.630375,0 L386.369625,0 C430.054043,0 445.895069,4.54845495 461.865439,13.0895025 C477.83581,21.63055 490.36945,34.1641902 498.910498,50.1345605 C507.451545,66.1049309 512,81.9459565 512,125.630375 L512,386.369625 C512,430.054043 507.451545,445.895069 498.910498,461.865439 C490.36945,477.83581 477.83581,490.36945 461.865439,498.910498 C445.895069,507.451545 430.054043,512 386.369625,512 L125.630375,512 C81.9459565,512 66.1049309,507.451545 50.1345605,498.910498 C34.1641902,490.36945 21.63055,477.83581 13.0895025,461.865439 C4.54845495,445.895069 0,430.054043 0,386.369625 L0,125.630375 C0,81.9459565 4.54845495,66.1049309 13.0895025,50.1345605 C21.63055,34.1641902 34.1641902,21.63055 50.1345605,13.0895025 C66.1049309,4.54845495 81.9459565,0 125.630375,0 Z" id="path-2" fill="#DA561E"></path>
            <path d="M125.630375,0 L386.369625,0 C430.054043,0 445.895069,4.54845495 461.865439,13.0895025 C477.83581,21.63055 490.36945,34.1641902 498.910498,50.1345605 C507.451545,66.1049309 512,81.9459565 512,125.630375 L512,386.369625 C512,430.054043 507.451545,445.895069 498.910498,461.865439 C490.36945,477.83581 477.83581,490.36945 461.865439,498.910498 C445.895069,507.451545 430.054043,512 386.369625,512 L125.630375,512 C81.9459565,512 66.1049309,507.451545 50.1345605,498.910498 C34.1641902,490.36945 21.63055,477.83581 13.0895025,461.865439 C4.54845495,445.895069 0,430.054043 0,386.369625 L0,125.630375 C0,81.9459565 4.54845495,66.1049309 13.0895025,50.1345605 C21.63055,34.1641902 34.1641902,21.63055 50.1345605,13.0895025 C66.1049309,4.54845495 81.9459565,0 125.630375,0 Z" id="path-2" fill="url(#linearGradient-1)"></path>
        </g>
        <g id="link" transform="translate(255.5, 255.5) rotate(-45) translate(-255.5, -255.5)translate(93, 93)" fill="#FFFFFF">
            <path d="M107.5,92.5 C115.784271,92.5 122.5,99.2157288 122.5,107.5 C122.5,115.784271 115.784271,122.5 107.5,122.5 C107.465268,122.5 107.430563,122.499882 107.395887,122.499646 L69.233131,122.5 C59.4152859,122.5 51.9178445,124.202394 46.1215375,127.302293 C41.1644065,129.953396 37.4533956,133.664407 34.8022929,138.621538 C31.702394,144.417844 30,151.915286 30,161.733131 L30,163.266869 C30,173.084714 31.702394,180.582156 34.8022929,186.378462 C37.4533956,191.335593 41.1644065,195.046604 46.1215375,197.697707 C51.9178445,200.797606 59.4152859,202.5 69.233131,202.5 L133.266869,202.5 C143.084714,202.5 150.582156,200.797606 156.378462,197.697707 C161.335593,195.046604 165.046604,191.335593 167.697707,186.378462 C170.797606,180.582156 172.5,173.084714 172.5,163.266869 L172.5,162.499299 L172.503218,162.186172 C172.67027,154.046786 179.320593,147.5 187.5,147.5 C195.784271,147.5 202.5,154.215729 202.5,162.5 L202.5,163.266869 C202.5,178.060892 199.5992,190.341243 194.152103,200.526428 C188.705006,210.711613 180.711613,218.705006 170.526428,224.152103 C160.341243,229.5992 148.060892,232.5 133.266869,232.5 L69.233131,232.5 C54.4391082,232.5 42.1587569,229.5992 31.9735718,224.152103 C21.7883866,218.705006 13.7949936,210.711613 8.34789699,200.526428 C2.90080035,190.341243 -2.83746786e-14,178.060892 -2.83746786e-14,163.266869 L-2.83746786e-14,161.733131 C-2.83746786e-14,146.939108 2.90080035,134.658757 8.34789699,124.473572 C13.7949936,114.288387 21.7883866,106.294994 31.9735718,100.847897 C42.1587569,95.4008003 54.4391082,92.5 69.233131,92.5 Z" id="Combined-Shape" fill-rule="nonzero"></path>
            <path d="M230,92.5007009 C238.284271,92.5007009 245,99.2164297 245,107.500701 C245,115.784972 238.284271,122.500701 230,122.500701 L191.733131,122.500701 C181.915286,122.500701 174.417844,124.203095 168.621538,127.302994 C163.664407,129.954097 159.953396,133.665107 157.302293,138.622238 C154.202394,144.418545 152.5,151.915987 152.5,161.733832 L152.5,163.26757 C152.5,173.085415 154.202394,180.582856 157.302293,186.379163 C159.953396,191.336294 163.664407,195.047305 168.621538,197.698408 C174.417844,200.798307 181.915286,202.500701 191.733131,202.500701 L255.766869,202.500701 C265.584714,202.500701 273.082156,200.798307 278.878462,197.698408 C283.835593,195.047305 287.546604,191.336294 290.197707,186.379163 C293.297606,180.582856 295,173.085415 295,163.26757 L295,162.5 L295.003218,162.186873 C295.17027,154.047487 301.820593,147.500701 310,147.500701 C318.284271,147.500701 325,154.21643 325,162.500701 L325,163.26757 C325,178.061593 322.0992,190.341944 316.652103,200.527129 C311.205006,210.712314 303.211613,218.705707 293.026428,224.152804 C282.841243,229.599901 270.560892,232.500701 255.766869,232.500701 L191.733131,232.500701 C176.939108,232.500701 164.658757,229.599901 154.473572,224.152804 C144.288387,218.705707 136.294994,210.712314 130.847897,200.527129 C125.4008,190.341944 122.5,178.061593 122.5,163.26757 L122.5,161.733832 C122.5,146.939809 125.4008,134.659458 130.847897,124.474273 C136.294994,114.289087 144.288387,106.295695 154.473572,100.848598 C164.658757,95.4015013 176.939108,92.5007009 191.733131,92.5007009 Z" id="Combined-Shape" fill-rule="nonzero" transform="translate(223.75, 162.5004) rotate(180) translate(-223.75, -162.5004)"></path>
            <path d="M205,22.5 C213.284271,22.5 220,29.2157288 220,37.5 L220,52.5 C220,60.7842712 213.284271,67.5 205,67.5 C196.715729,67.5 190,60.7842712 190,52.5 L190,37.5 C190,29.2157288 196.715729,22.5 205,22.5 Z" id="Rectangle" transform="translate(205, 45) rotate(45) translate(-205, -45)"></path>
            <path d="M155,-2.84217094e-14 C163.284271,-3.01980663e-14 170,6.71572875 170,15 L170,30 C170,38.2842712 163.284271,45 155,45 C146.715729,45 140,38.2842712 140,30 L140,15 C140,6.71572875 146.715729,-2.66453526e-14 155,-2.84217094e-14 Z" id="Rectangle"></path>
            <path d="M103.080583,16.8305826 C111.364854,16.8305826 118.080583,23.5463114 118.080583,31.8305826 L118.080583,59.3305826 C118.080583,67.6148539 111.364854,74.3305826 103.080583,74.3305826 C94.7963114,74.3305826 88.0805826,67.6148539 88.0805826,59.3305826 L88.0805826,31.8305826 C88.0805826,23.5463114 94.7963114,16.8305826 103.080583,16.8305826 Z" id="Rectangle-Copy" transform="translate(103.0806, 45.5806) rotate(-45) translate(-103.0806, -45.5806)"></path>
            <path d="M98.6611652,257.5 C106.945436,257.5 113.661165,264.215729 113.661165,272.5 L113.661165,287.5 C113.661165,295.784271 106.945436,302.5 98.6611652,302.5 C90.376894,302.5 83.6611652,295.784271 83.6611652,287.5 L83.6611652,272.5 C83.6611652,264.215729 90.376894,257.5 98.6611652,257.5 Z" id="Rectangle" transform="translate(98.6612, 280) scale(-1, -1) rotate(45) translate(-98.6612, -280)"></path>
            <path d="M148.661165,280 C156.945436,280 163.661165,286.715729 163.661165,295 L163.661165,310 C163.661165,318.284271 156.945436,325 148.661165,325 C140.376894,325 133.661165,318.284271 133.661165,310 L133.661165,295 C133.661165,286.715729 140.376894,280 148.661165,280 Z" id="Rectangle" transform="translate(148.6612, 302.5) scale(-1, -1) translate(-148.6612, -302.5)"></path>
            <path d="M200.580583,250.669417 C208.864854,250.669417 215.580583,257.385146 215.580583,265.669417 L215.580583,293.169417 C215.580583,301.453689 208.864854,308.169417 200.580583,308.169417 C192.296311,308.169417 185.580583,301.453689 185.580583,293.169417 L185.580583,265.669417 C185.580583,257.385146 192.296311,250.669417 200.580583,250.669417 Z" id="Rectangle-Copy" transform="translate(200.5806, 279.4194) scale(-1, -1) rotate(-45) translate(-200.5806, -279.4194)"></path>
        </g>
    </g>
</svg>